Coordinates
version=1
nRows=5
nColumns=40
inDegrees=yes

Units are S.I. units (second, meters, Newtons, ...)
Angles are in degrees.

endheader
time	pelvis_tilt	pelvis_list	pelvis_rotation	pelvis_tx	pelvis_ty	pelvis_tz	hip_flexion_r	hip_adduction_r	hip_rotation_r	knee_angle_r	knee_angle_r_beta	ankle_angle_r	subtalar_angle_r	mtp_angle_r	hip_flexion_l	hip_adduction_l	hip_rotation_l	knee_angle_l	knee_angle_l_beta	ankle_angle_l	subtalar_angle_l	mtp_angle_l	lumbar_extension	lumbar_bending	lumbar_rotation	arm_flex_r	arm_add_r	arm_rot_r	elbow_flex_r	pro_sup_r	wrist_flex_r	wrist_dev_r	arm_flex_l	arm_add_l	arm_rot_l	elbow_flex_l	pro_sup_l	wrist_flex_l	wrist_dev_l
     21.72000000	     -3.54874265	     -4.75946059	     -2.03545960	      0.85096431	      0.92127971	      0.49732529	     20.46847976	      1.83071463	    -11.63326321	     23.58046092	     23.58046092	      8.63618419	     -4.35092809	     -3.79961424	      7.86405732	     -8.87581904	     -3.62629787	     44.24107688	     44.24107688	     13.54595262	    -16.94835447	     -3.70188743	     -7.79615762	      7.73547685	      2.02561295	      1.84073110	    -11.64296554	    -14.09006597	     25.63018016	     46.77817311	      0.00000000	      0.00000000	     12.65642395	    -10.46955578	     -9.69499082	     70.75257741	     47.15742176	      0.00000000	      0.00000000
     21.73200000	     -3.57084062	     -4.91465540	     -1.71142978	      0.84996636	      0.92220941	      0.49915878	     19.70079269	      2.07454445	    -12.08911812	     22.95047260	     22.95047260	      8.65101103	     -4.11831458	     -4.31258602	     10.21254220	     -9.29656810	     -2.83325816	     48.47284202	     48.47284202	     13.59451467	    -17.25891341	      0.85556125	     -7.86509093	      7.82291704	      2.66107402	      2.82325206	    -11.91316252	    -13.49093277	     27.22135152	     46.65595596	      0.00000000	      0.00000000	     12.87013908	     -9.80318398	     -8.43631404	     67.83341308	     47.06416720	      0.00000000	      0.00000000
     21.74400000	     -3.57033456	     -5.09638231	     -1.41118541	      0.84883730	      0.92300691	      0.50094789	     18.95733995	      2.36378969	    -12.46319753	     22.40051398	     22.40051398	      8.81857813	     -3.87124319	     -4.30666717	     12.37088121	     -9.80051074	     -2.24646912	     52.01455878	     52.01455878	     12.19249820	    -17.97799554	      1.34506170	     -8.07344121	      7.93608930	      2.72332020	      4.62739459	    -12.02343117	    -13.42569718	     28.11866550	     46.62690880	      0.00000000	      0.00000000	     12.05870955	     -9.34059805	     -8.01242425	     66.83686307	     47.01501178	      0.00000000	      0.00000000
     21.75600000	     -3.68313405	     -5.15861850	     -1.07349605	      0.84755584	      0.92362024	      0.50241250	     18.32251570	      2.47977165	    -12.95975099	     21.80233836	     21.80233836	      8.90511389	     -3.42251806	     -4.66388013	     14.86117106	     -9.94888143	     -1.36670046	     55.66615208	     55.66615208	     13.18808240	    -17.98482123	      7.55742422	     -8.01376439	      7.97507697	      3.03234291	      5.72320194	    -12.35625973	    -12.47912243	     30.06946352	     46.46751695	      0.00000000	      0.00000000	     12.26957582	     -8.94968853	     -6.67255507	     62.81783924	     46.88585505	      0.00000000	      0.00000000
     21.76800000	     -3.74208732	     -5.39512631	     -0.75203160	      0.84623438	      0.92409666	      0.50400076	     17.66752119	      2.82724928	    -13.36765165	     21.26578108	     21.26578108	      9.05717908	     -3.19058754	     -4.63779897	     17.05383619	    -10.46791596	     -0.84677884	     58.44538245	     58.44538245	     12.33685776	    -18.40806427	      7.96239810	     -8.13271646	      8.12008635	      2.97118037	      7.54490339	    -12.49283659	    -12.40576815	     31.10678540	     46.43199716	      0.00000000	      0.00000000	     11.32020423	     -8.63931039	     -6.23429395	     61.65632620	     46.83106204	      0.00000000	      0.00000000
